name D:\PhD\Datasets\SharingData_IBEC_VALDUCE\RM1_Healthy_0001.mot
datacolumns 46
datarows 8
range 7.51000000 7.58000000
endheader
                time	         pelvis_tilt	     pelvis_rotation	           pelvis_tx	           pelvis_ty	           pelvis_tz	       hip_flexion_r	     hip_adduction_r	      hip_rotation_r	        knee_angle_r	       ankle_angle_r	    subtalar_angle_r	         mtp_angle_r	       hip_flexion_l	     hip_adduction_l	      hip_rotation_l	        knee_angle_l	       ankle_angle_l	    subtalar_angle_l	         mtp_angle_l	    lumbar_extension	      lumbar_bending	     lumbar_rotation	          arm_flex_r	           arm_add_r	           arm_rot_r	        elbow_flex_r	           pro_sup_r	        wrist_flex_r	         wrist_dev_r	          arm_flex_l	           arm_add_l	           arm_rot_l	        elbow_flex_l	           pro_sup_l	        wrist_flex_l	         wrist_dev_l	          end_eff_tx	          end_eff_ty	          end_eff_tz	             goal_tx	             goal_ty	             goal_tz	            elbow_tx	            elbow_ty	            elbow_tz	
          7.51000000	          0.00000000	          0.00000000	        298.10194094	        513.17546748	        358.10916634	          0.00000000	          0.00000000	          0.00000000	          0.00000000	          0.00000000	          0.00000000	          0.00000000	          0.00000000	          0.00000000	          0.00000000	          0.00000000	          0.00000000	          0.00000000	          0.00000000	          8.91139793	         -2.62926865	         -7.70843792	         40.27145386	        -31.14703178	         21.24662971	         57.80780411	         80.71688080	          0.00000000	          0.00000000	          0.00000000	          0.00000000	          0.00000000	          0.00000000	          0.00000000	          0.00000000	          0.00000000	        738.69224139	        555.18452950	        631.69576838	        885.81465487	        674.30701477	        570.68509296	        354.16590507	        448.74537364	        711.97113401	
          7.52000000	          0.00000000	          0.00000000	        298.06682915	        513.09527557	        358.24811352	          0.00000000	          0.00000000	          0.00000000	          0.00000000	          0.00000000	          0.00000000	          0.00000000	          0.00000000	          0.00000000	          0.00000000	          0.00000000	          0.00000000	          0.00000000	          0.00000000	          8.81132317	         -2.57923388	         -7.70886469	         40.13501358	        -31.20924187	         21.13156891	         57.91472626	         80.94898987	          0.00000000	          0.00000000	          0.00000000	          0.00000000	          0.00000000	          0.00000000	          0.00000000	          0.00000000	          0.00000000	        737.54744635	        553.51825814	        631.65360195	        885.82632469	        674.33555217	        570.70069322	        353.02980739	        447.72649088	        712.06466921	
          7.53000000	          0.00000000	          0.00000000	        298.03278065	        513.07792862	        358.35027055	          0.00000000	          0.00000000	          0.00000000	          0.00000000	          0.00000000	          0.00000000	          0.00000000	          0.00000000	          0.00000000	          0.00000000	          0.00000000	          0.00000000	          0.00000000	          0.00000000	          8.72857285	         -2.57120776	         -7.69183493	         39.92134094	        -31.22765350	         20.97927856	         58.11480331	         80.86037445	          0.00000000	          0.00000000	          0.00000000	          0.00000000	          0.00000000	          0.00000000	          0.00000000	          0.00000000	          0.00000000	        736.66910151	        552.10712507	        632.03150156	        885.81679003	        674.33720746	        570.70946675	        351.96234904	        446.58911168	        712.26544753	
          7.54000000	          0.00000000	          0.00000000	        297.99400516	        513.01933466	        358.50199444	          0.00000000	          0.00000000	          0.00000000	          0.00000000	          0.00000000	          0.00000000	          0.00000000	          0.00000000	          0.00000000	          0.00000000	          0.00000000	          0.00000000	          0.00000000	          0.00000000	          8.63407040	         -2.51778865	         -7.70046186	         39.80441284	        -31.30328941	         20.95659065	         58.24121475	         80.90000153	          0.00000000	          0.00000000	          0.00000000	          0.00000000	          0.00000000	          0.00000000	          0.00000000	          0.00000000	          0.00000000	        735.56799097	        550.62258407	        632.09909372	        885.85953254	        674.31998040	        570.66269773	        350.80107616	        445.61542996	        712.52028852	
          7.55000000	          0.00000000	          0.00000000	        297.96676479	        512.97519410	        358.64094606	          0.00000000	          0.00000000	          0.00000000	          0.00000000	          0.00000000	          0.00000000	          0.00000000	          0.00000000	          0.00000000	          0.00000000	          0.00000000	          0.00000000	          0.00000000	          0.00000000	          8.55681992	         -2.54135489	         -7.66712999	         39.57179260	        -31.33489037	         20.77620888	         58.36954117	         81.14721680	          0.00000000	          0.00000000	          0.00000000	          0.00000000	          0.00000000	          0.00000000	          0.00000000	          0.00000000	          0.00000000	        734.69413279	        548.95414814	        632.29269188	        885.82110189	        674.34839375	        570.71015925	        349.71570172	        444.63613198	        712.69571675	
          7.56000000	          0.00000000	          0.00000000	        297.92956315	        512.94655550	        358.78829882	          0.00000000	          0.00000000	          0.00000000	          0.00000000	          0.00000000	          0.00000000	          0.00000000	          0.00000000	          0.00000000	          0.00000000	          0.00000000	          0.00000000	          0.00000000	          0.00000000	          8.45916080	         -2.53670359	         -7.65340900	         39.42037964	        -31.38570404	         20.65692329	         58.51866531	         81.13412476	          0.00000000	          0.00000000	          0.00000000	          0.00000000	          0.00000000	          0.00000000	          0.00000000	          0.00000000	          0.00000000	        733.70326120	        547.44463795	        632.48743288	        885.82354070	        674.33921080	        570.68193012	        348.62971063	        443.58171523	        712.84660915	
          7.57000000	          0.00000000	          0.00000000	        297.89436284	        512.87126345	        358.92460696	          0.00000000	          0.00000000	          0.00000000	          0.00000000	          0.00000000	          0.00000000	          0.00000000	          0.00000000	          0.00000000	          0.00000000	          0.00000000	          0.00000000	          0.00000000	          0.00000000	          8.43231678	         -2.52987432	         -7.62784195	         39.17780304	        -31.47328758	         20.53120613	         58.71558380	         81.25056458	          0.00000000	          0.00000000	          0.00000000	          0.00000000	          0.00000000	          0.00000000	          0.00000000	          0.00000000	          0.00000000	        732.76394351	        545.88615575	        632.65039640	        885.82773886	        674.31325496	        570.69535436	        347.56587028	        442.42755236	        712.99728696	
          7.58000000	          0.00000000	          0.00000000	        297.86576624	        512.86009896	        359.03546328	          0.00000000	          0.00000000	          0.00000000	          0.00000000	          0.00000000	          0.00000000	          0.00000000	          0.00000000	          0.00000000	          0.00000000	          0.00000000	          0.00000000	          0.00000000	          0.00000000	          8.38465405	         -2.51609492	         -7.63021278	         38.96659470	        -31.53317451	         20.42337227	         58.83188248	         81.38875580	          0.00000000	          0.00000000	          0.00000000	          0.00000000	          0.00000000	          0.00000000	          0.00000000	          0.00000000	          0.00000000	        731.74388574	        544.43800101	        632.75426091	        885.82533457	        674.32158184	        570.68331964	        346.46862465	        441.52486225	        713.04273918	
